<mxfile host="65bd71144e">
    <diagram id="i5EG3LjnO_YABH-9sDDq" name="第 1 页">
        <mxGraphModel dx="1051" dy="2547" grid="1" gridSize="10" guides="1" tooltips="1" connect="1" arrows="1" fold="1" page="1" pageScale="1" pageWidth="1200" pageHeight="1920" background="#FFFFFF" math="0" shadow="0">
            <root>
                <mxCell id="0"/>
                <mxCell id="1" parent="0"/>
                <mxCell id="3" value="" style="shape=partialRectangle;whiteSpace=wrap;html=1;bottom=1;right=1;left=1;top=0;fillColor=none;routingCenterX=-0.5;strokeColor=#000000;strokeWidth=3;" vertex="1" parent="1">
                    <mxGeometry x="120" y="150" width="160" height="320" as="geometry"/>
                </mxCell>
                <mxCell id="4" value="整个项目" style="whiteSpace=wrap;html=1;strokeColor=#000000;strokeWidth=3;" vertex="1" parent="1">
                    <mxGeometry x="155" y="400" width="90" height="50" as="geometry"/>
                </mxCell>
                <mxCell id="6" value="" style="shape=partialRectangle;whiteSpace=wrap;html=1;bottom=1;right=1;left=1;top=0;fillColor=none;routingCenterX=-0.5;strokeColor=#000000;strokeWidth=3;" vertex="1" parent="1">
                    <mxGeometry x="420" y="150" width="160" height="320" as="geometry"/>
                </mxCell>
                <mxCell id="7" value="整个项目" style="whiteSpace=wrap;html=1;strokeColor=#000000;strokeWidth=3;" vertex="1" parent="1">
                    <mxGeometry x="455" y="400" width="90" height="50" as="geometry"/>
                </mxCell>
                <mxCell id="8" value="模块A" style="whiteSpace=wrap;html=1;strokeColor=#000000;strokeWidth=3;" vertex="1" parent="1">
                    <mxGeometry x="455" y="180" width="90" height="50" as="geometry"/>
                </mxCell>
                <mxCell id="9" value="是否学会整个项目&lt;br&gt;是--&amp;gt;弹出&lt;br&gt;否--&amp;gt;寻找如何才能解决,并入栈" style="text;html=1;align=center;verticalAlign=middle;resizable=0;points=[];autosize=1;strokeColor=none;fillColor=none;fontColor=#000000;fontSize=15;" vertex="1" parent="1">
                    <mxGeometry x="90" y="490" width="220" height="60" as="geometry"/>
                </mxCell>
                <mxCell id="10" value="模块C" style="whiteSpace=wrap;html=1;strokeColor=#000000;strokeWidth=3;" vertex="1" parent="1">
                    <mxGeometry x="455" y="320" width="90" height="50" as="geometry"/>
                </mxCell>
                <mxCell id="11" value="模块B" style="whiteSpace=wrap;html=1;strokeColor=#000000;strokeWidth=3;" vertex="1" parent="1">
                    <mxGeometry x="455" y="250" width="90" height="50" as="geometry"/>
                </mxCell>
                <mxCell id="12" value="粒度:模块&amp;lt;项目&lt;br&gt;入栈&lt;br&gt;想要学会整个项目&lt;br&gt;首先要学会各个模块&lt;br&gt;" style="text;html=1;align=center;verticalAlign=middle;resizable=0;points=[];autosize=1;strokeColor=none;fillColor=none;fontColor=#000000;fontSize=15;" vertex="1" parent="1">
                    <mxGeometry x="420" y="500" width="150" height="80" as="geometry"/>
                </mxCell>
                <mxCell id="13" value="" style="shape=partialRectangle;whiteSpace=wrap;html=1;bottom=1;right=1;left=1;top=0;fillColor=none;routingCenterX=-0.5;strokeColor=#000000;strokeWidth=3;" vertex="1" parent="1">
                    <mxGeometry x="870" y="-50" width="160" height="510" as="geometry"/>
                </mxCell>
                <mxCell id="14" value="整个项目" style="whiteSpace=wrap;html=1;strokeColor=#000000;strokeWidth=3;" vertex="1" parent="1">
                    <mxGeometry x="905" y="390" width="90" height="50" as="geometry"/>
                </mxCell>
                <mxCell id="15" value="模块A" style="whiteSpace=wrap;html=1;strokeColor=#000000;strokeWidth=3;" vertex="1" parent="1">
                    <mxGeometry x="905" y="170" width="90" height="50" as="geometry"/>
                </mxCell>
                <mxCell id="16" value="模块C" style="whiteSpace=wrap;html=1;strokeColor=#000000;strokeWidth=3;" vertex="1" parent="1">
                    <mxGeometry x="905" y="310" width="90" height="50" as="geometry"/>
                </mxCell>
                <mxCell id="17" value="模块B" style="whiteSpace=wrap;html=1;strokeColor=#000000;strokeWidth=3;" vertex="1" parent="1">
                    <mxGeometry x="905" y="240" width="90" height="50" as="geometry"/>
                </mxCell>
                <mxCell id="18" value="粒度:函数&amp;lt;模块&amp;lt;项目&lt;br&gt;入栈&lt;br&gt;想要学会整个模块&lt;br&gt;首先要学会各个函数" style="text;html=1;align=center;verticalAlign=middle;resizable=0;points=[];autosize=1;strokeColor=none;fillColor=none;fontColor=#000000;fontSize=15;" vertex="1" parent="1">
                    <mxGeometry x="870" y="490" width="160" height="80" as="geometry"/>
                </mxCell>
                <mxCell id="19" value="模块A内&lt;br&gt;函数a" style="whiteSpace=wrap;html=1;strokeColor=#000000;strokeWidth=3;" vertex="1" parent="1">
                    <mxGeometry x="905" y="10" width="90" height="50" as="geometry"/>
                </mxCell>
                <mxCell id="21" value="模块A内&lt;br&gt;函数b" style="whiteSpace=wrap;html=1;strokeColor=#000000;strokeWidth=3;" vertex="1" parent="1">
                    <mxGeometry x="905" y="90" width="90" height="50" as="geometry"/>
                </mxCell>
                <mxCell id="22" value="" style="whiteSpace=wrap;html=1;fontSize=15;fontColor=#000000;strokeColor=#000000;strokeWidth=3;" vertex="1" parent="1">
                    <mxGeometry x="3270" y="300" width="120" height="60" as="geometry"/>
                </mxCell>
                <mxCell id="30" value="粒度:码段&amp;lt;函数&amp;lt;模块&amp;lt;项目&lt;br&gt;入栈&lt;br&gt;想要学会整个函数&lt;br&gt;首先要学会各个代码段" style="text;html=1;align=center;verticalAlign=middle;resizable=0;points=[];autosize=1;strokeColor=none;fillColor=none;fontColor=#000000;fontSize=15;" vertex="1" parent="1">
                    <mxGeometry x="1165" y="495" width="190" height="80" as="geometry"/>
                </mxCell>
                <mxCell id="36" value="" style="shape=partialRectangle;whiteSpace=wrap;html=1;bottom=1;right=1;left=1;top=0;fillColor=none;routingCenterX=-0.5;strokeColor=#000000;strokeWidth=3;" vertex="1" parent="1">
                    <mxGeometry x="1170" y="-50" width="160" height="510" as="geometry"/>
                </mxCell>
                <mxCell id="38" value="模块A" style="whiteSpace=wrap;html=1;strokeColor=#000000;strokeWidth=3;" vertex="1" parent="1">
                    <mxGeometry x="1200" y="390" width="90" height="50" as="geometry"/>
                </mxCell>
                <mxCell id="41" value="模块A内&lt;br&gt;函数a" style="whiteSpace=wrap;html=1;strokeColor=#000000;strokeWidth=3;" vertex="1" parent="1">
                    <mxGeometry x="1200" y="240" width="90" height="50" as="geometry"/>
                </mxCell>
                <mxCell id="42" value="模块A内&lt;br&gt;函数b" style="whiteSpace=wrap;html=1;strokeColor=#000000;strokeWidth=3;" vertex="1" parent="1">
                    <mxGeometry x="1200" y="310" width="90" height="50" as="geometry"/>
                </mxCell>
                <mxCell id="43" value="模块A内&lt;br&gt;函数a&lt;br&gt;代码段2" style="whiteSpace=wrap;html=1;strokeColor=#000000;strokeWidth=3;" vertex="1" parent="1">
                    <mxGeometry x="1200" y="170" width="90" height="50" as="geometry"/>
                </mxCell>
                <mxCell id="44" value="模块A内&lt;br&gt;函数a&lt;br&gt;代码段1" style="whiteSpace=wrap;html=1;strokeColor=#000000;strokeWidth=3;" vertex="1" parent="1">
                    <mxGeometry x="1200" y="90" width="90" height="50" as="geometry"/>
                </mxCell>
                <mxCell id="46" value="总粒度:某行代码&amp;lt;代码段&amp;lt;函数&amp;lt;模块&amp;lt;项目&lt;br&gt;" style="text;html=1;align=center;verticalAlign=middle;resizable=0;points=[];autosize=1;strokeColor=none;fillColor=none;fontColor=#000000;fontSize=15;" vertex="1" parent="1">
                    <mxGeometry x="1400" y="105" width="290" height="20" as="geometry"/>
                </mxCell>
                <mxCell id="47" value="到最后栈中达到最小粒度时&lt;br&gt;就要执行出栈&lt;br&gt;原则:只要能达到完成上个比你大的粒度的任务即可&lt;br&gt;理由:这样就能最小程度地节省时间达到目的&lt;br&gt;" style="text;html=1;align=center;verticalAlign=middle;resizable=0;points=[];autosize=1;strokeColor=none;fillColor=none;fontColor=#000000;fontSize=15;" vertex="1" parent="1">
                    <mxGeometry x="1370" y="165" width="350" height="80" as="geometry"/>
                </mxCell>
                <mxCell id="53" value="&lt;font color=&quot;#ffffff&quot;&gt;项目&lt;/font&gt;" style="ellipse;whiteSpace=wrap;html=1;fontSize=15;fontColor=#000000;strokeColor=#000000;strokeWidth=3;" vertex="1" parent="1">
                    <mxGeometry x="2020" y="85" width="50" height="40" as="geometry"/>
                </mxCell>
                <mxCell id="60" value="&lt;font color=&quot;#ffffff&quot;&gt;函数a&lt;/font&gt;" style="ellipse;whiteSpace=wrap;html=1;fontSize=15;fontColor=#000000;strokeColor=#000000;strokeWidth=3;" vertex="1" parent="1">
                    <mxGeometry x="1900" y="205" width="50" height="40" as="geometry"/>
                </mxCell>
                <mxCell id="61" value="&lt;font color=&quot;#ffffff&quot;&gt;模块B&lt;/font&gt;" style="ellipse;whiteSpace=wrap;html=1;fontSize=15;fontColor=#000000;strokeColor=#000000;strokeWidth=3;" vertex="1" parent="1">
                    <mxGeometry x="2080" y="145" width="50" height="40" as="geometry"/>
                </mxCell>
                <mxCell id="62" value="&lt;font color=&quot;#ffffff&quot;&gt;模块A&lt;/font&gt;" style="ellipse;whiteSpace=wrap;html=1;fontSize=15;fontColor=#000000;strokeColor=#000000;strokeWidth=3;" vertex="1" parent="1">
                    <mxGeometry x="1960" y="145" width="50" height="40" as="geometry"/>
                </mxCell>
                <mxCell id="63" value="例子:&lt;br&gt;目的:弄清整个项目大概是怎么运行的&lt;br&gt;得出:了解模块层面&lt;br&gt;由于有文档/命名规范/注释&lt;br&gt;可以得出该代码段的作用&lt;br&gt;如果此时继续扎进该代码段中的代码&lt;br&gt;那么对于了解模块A的步长为3&lt;br&gt;(时间无法估计,以步长量化)&lt;br&gt;不扎进去&lt;br&gt;步长为2&lt;br&gt;目标:以最少的步长了解模块间的运作" style="text;html=1;align=center;verticalAlign=middle;resizable=0;points=[];autosize=1;strokeColor=none;fillColor=none;fontColor=#000000;fontSize=15;" vertex="1" parent="1">
                    <mxGeometry x="2000" y="270" width="260" height="200" as="geometry"/>
                </mxCell>
                <mxCell id="64" value="&lt;font color=&quot;#ffffff&quot;&gt;函数a&lt;/font&gt;" style="ellipse;whiteSpace=wrap;html=1;fontSize=15;fontColor=#000000;strokeColor=#000000;strokeWidth=3;" vertex="1" parent="1">
                    <mxGeometry x="2000" y="205" width="50" height="40" as="geometry"/>
                </mxCell>
                <mxCell id="65" value="&lt;font color=&quot;#ffffff&quot;&gt;代码段1&lt;/font&gt;" style="ellipse;whiteSpace=wrap;html=1;fontSize=15;fontColor=#000000;strokeColor=#000000;strokeWidth=3;" vertex="1" parent="1">
                    <mxGeometry x="1850" y="265" width="50" height="40" as="geometry"/>
                </mxCell>
                <mxCell id="66" value="&lt;font color=&quot;#ffffff&quot;&gt;代码段2&lt;/font&gt;" style="ellipse;whiteSpace=wrap;html=1;fontSize=15;fontColor=#000000;strokeColor=#000000;strokeWidth=3;" vertex="1" parent="1">
                    <mxGeometry x="1930" y="265" width="50" height="40" as="geometry"/>
                </mxCell>
                <mxCell id="68" value="3" style="shape=singleArrow;whiteSpace=wrap;html=1;arrowWidth=0.4;arrowSize=0.4;fontSize=15;fontColor=#ffffff;strokeColor=#2D7600;strokeWidth=3;fillColor=#60a917;" vertex="1" parent="1">
                    <mxGeometry x="1700" y="330" width="80" height="60" as="geometry"/>
                </mxCell>
                <mxCell id="70" value="&lt;font color=&quot;#ffffff&quot;&gt;代码第一行&lt;/font&gt;" style="ellipse;whiteSpace=wrap;html=1;fontSize=15;fontColor=#000000;strokeColor=#000000;strokeWidth=3;" vertex="1" parent="1">
                    <mxGeometry x="1790" y="340" width="50" height="40" as="geometry"/>
                </mxCell>
                <mxCell id="71" value="2" style="shape=singleArrow;whiteSpace=wrap;html=1;arrowWidth=0.4;arrowSize=0.4;fontSize=15;fontColor=#ffffff;strokeColor=#2D7600;strokeWidth=3;fillColor=#60a917;" vertex="1" parent="1">
                    <mxGeometry x="1750" y="250" width="80" height="60" as="geometry"/>
                </mxCell>
                <mxCell id="72" value="1" style="shape=singleArrow;whiteSpace=wrap;html=1;arrowWidth=0.4;arrowSize=0.4;fontSize=15;fontColor=#ffffff;strokeColor=#2D7600;strokeWidth=3;fillColor=#60a917;" vertex="1" parent="1">
                    <mxGeometry x="1800" y="190" width="80" height="60" as="geometry"/>
                </mxCell>
            </root>
        </mxGraphModel>
    </diagram>
</mxfile>